<?xml version="1.0" encoding="UTF-8" standalone="no"?>
<!-- Created with Inkscape (http://www.inkscape.org/) -->

<svg
   width="70.002754mm"
   height="59.888271mm"
   viewBox="0 0 70.002754 59.888271"
   version="1.1"
   id="svg1"
   xml:space="preserve"
   xmlns="http://www.w3.org/2000/svg"
   xmlns:svg="http://www.w3.org/2000/svg"><defs
     id="defs1" /><g
     id="layer1"
     transform="translate(-54.022656,-45.38029)"><g
       id="g68"
       transform="matrix(0.78025429,0,0,0.78025429,19.562649,16.552219)"
       style="fill:#ffffff;fill-opacity:1"><path
         id="path22"
         style="fill:#ffffff;fill-opacity:1;stroke:#000000;stroke-width:0.5;stroke-dasharray:none;stroke-opacity:1"
         d="m 96.346574,46.981628 c -0.85766,0 -1.039027,0.326545 -0.652157,1.175639 0.27678,0.607464 0.231853,0.771211 -0.393257,1.423686 -0.309396,0.32294 -0.523288,0.588659 -0.637171,0.805119 l -1.835547,1.71204 -0.650089,6.043559 c -0.163591,-0.05395 -0.681936,0.225818 -1.152385,0.621667 -0.7486,0.62991 -0.949704,0.684119 -1.610754,0.434599 -0.584572,-0.22062 -0.822589,-0.204233 -1.052132,0.07235 -0.435962,0.5253 -0.05172,1.525532 0.498677,1.298112 1.033661,-0.42711 1.328209,-0.39222 2.054139,0.24598 0.42153,0.37059 0.980184,0.677129 1.241784,0.682129 0.007,1.23e-4 0.01388,5.19e-4 0.02067,5.16e-4 v 1.07332 c -0.05828,-0.0056 -0.124409,-0.0067 -0.199471,-0.0067 -0.34605,0 -0.792528,0.243956 -0.992188,0.542086 -0.3533,0.52761 -0.717082,0.607349 -2.08256,0.456819 -0.548612,-0.06048 -0.661458,0.03999 -0.661458,0.588595 0,0.68725 0.521505,0.828617 1.507401,0.409277 0.30535,-0.12988 0.644234,0.01931 1.058334,0.465605 0.33503,0.36109 0.877147,0.669313 1.204577,0.684713 0.06126,0.0029 0.116009,0.0041 0.165365,0.0021 v 1.086755 c -0.0274,-0.0021 -0.05641,-0.0026 -0.08733,-0.0026 -0.28443,0 -0.825104,0.30834 -1.201994,0.68523 -0.46663,0.4666 -0.829602,0.62415 -1.136882,0.49351 -0.988078,-0.42008 -1.509468,-0.27893 -1.509468,0.40876 0,0.62347 0.07078,0.656259 1.236617,0.575159 1.031555,-0.07172 1.285596,0.0051 1.530656,0.463021 0.17536,0.32766 0.556975,0.54932 0.946195,0.54932 0.08463,0 0.158074,-0.0015 0.222209,-0.0078 v 1.040246 c -0.250706,-0.02899 -0.637598,0.209344 -1.205611,0.687297 -0.86518,0.728 -1.280335,0.814625 -1.733228,0.361735 -0.416554,-0.41655 -1.12913,-0.08625 -1.12913,0.523482 0,0.68926 0.576188,1.133696 1.067118,0.823206 0.644031,-0.40733 1.199448,-0.288087 1.964738,0.421163 0.40019,0.37088 0.863668,0.629125 1.030428,0.574125 0.0019,-6.37e-4 0.0038,-0.0013 0.0057,-0.0021 v 0.870231 c -0.0021,-1.3e-5 -0.0041,0 -0.0062,0 -0.25364,0 -0.797579,0.322362 -1.209229,0.716752 -0.66668,0.63871 -0.83369,0.685067 -1.526005,0.423747 -0.608675,-0.22974 -0.84157,-0.215781 -1.073836,0.06408 -0.437063,0.52663 -0.05175,1.526438 0.498677,1.293978 1.079201,-0.45578 1.52016,-0.400409 2.14974,0.269751 0.547294,0.582564 0.92185,0.771767 1.166854,0.536918 v 1.088305 c -0.241308,-0.102986 -0.592453,0.07684 -1.073836,0.522966 -0.56462,0.52324 -0.94354,0.647094 -1.789038,0.585494 -0.939954,-0.06853 -1.083343,-0.0043 -1.157553,0.518314 -0.09703,0.68336 0.613927,1.097079 1.081588,0.629419 0.478923,-0.47892 1.112387,-0.350275 1.781287,0.361735 0.34177,0.3638 0.838655,0.661459 1.104325,0.661459 0.01846,0 0.03612,-5.69e-4 0.05323,-0.0016 v 1.066602 c -0.05828,-0.0056 -0.124409,-0.0067 -0.199471,-0.0067 -0.34605,0 -0.792528,0.243956 -0.992188,0.542086 -0.3533,0.52761 -0.717082,0.607349 -2.08256,0.456819 -0.548612,-0.06048 -0.661458,0.03998 -0.661458,0.588595 0,0.68309 0.522579,0.829559 1.488281,0.417029 0.27596,-0.11789 0.702595,0.05559 1.190625,0.484725 0.591691,0.520263 0.993919,0.761556 1.256771,0.696598 v 1.037663 c -0.254196,-0.04121 -0.643143,0.197592 -1.222665,0.685229 -0.50057,0.42115 -0.963265,0.609175 -1.228865,0.499195 -1.05422,-0.43657 -1.305273,-0.416091 -1.475879,0.121439 -0.269904,0.85036 0.05146,1.103138 1.175122,0.923458 0.833392,-0.13326 1.10652,-0.06148 1.4981,0.395842 0.26337,0.3076 0.750128,0.559655 1.081588,0.559655 0.06421,0 0.121275,-0.0014 0.172599,-0.0062 v 1.040247 c -0.253638,-0.02867 -0.647295,0.215505 -1.228866,0.704866 -0.76732,0.64566 -1.058347,0.681655 -2.087728,0.256315 -0.550398,-0.22743 -0.934639,0.772296 -0.498677,1.297596 0.233211,0.281 0.464731,0.294008 1.082104,0.06098 0.704623,-0.26597 0.859419,-0.221515 1.511019,0.430465 0.588903,0.58925 0.974907,0.796318 1.222148,0.578259 v 1.004073 c -0.257898,-0.116624 -0.641985,0.09248 -1.179773,0.607715 -0.70257,0.6731 -0.865437,0.720653 -1.561662,0.457853 -0.608675,-0.22974 -0.84157,-0.215781 -1.073836,0.06408 -0.437063,0.52663 -0.05175,1.526438 0.498677,1.293978 1.075991,-0.45442 1.520392,-0.400134 2.141472,0.260966 0.35142,0.37408 0.856225,0.680065 1.121895,0.680065 0.01846,0 0.03612,-5.7e-4 0.05323,-0.002 v 1.06763 c -0.06414,-0.006 -0.13758,-0.008 -0.222209,-0.008 -0.38922,0 -0.770835,0.22114 -0.946195,0.5488 -0.24506,0.45802 -0.499101,0.53472 -1.530656,0.46302 -1.165841,-0.0811 -1.236617,-0.0478 -1.236617,0.57568 0,0.68309 0.522579,0.82957 1.488281,0.41703 0.27596,-0.11789 0.702595,0.0556 1.190625,0.48472 0.591691,0.52027 0.993919,0.76156 1.256771,0.6966 v 0.46561 H 96.66212 V 55.237972 h 27.11329 v -4.840531 h -0.23719 c -0.11412,-0.175234 -0.29038,-0.3856 -0.524,-0.637688 -0.64683,-0.697948 -0.68435,-0.942084 -0.34365,-2.242757 0.0648,-0.24728 -0.12728,-0.425211 -0.52348,-0.485241 -0.83864,-0.12708 -1.28351,0.328612 -0.8413,0.861446 0.44074,0.531049 0.15196,1.64057 -0.52038,2.000394 -0.19332,0.103462 -0.36333,0.298758 -0.45475,0.502295 l -1.04645,-5.16e-4 c -0.0881,-0.166681 -0.25661,-0.358397 -0.50591,-0.575159 -0.59343,-0.515979 -0.6556,-0.725195 -0.50746,-1.713074 0.16033,-1.069168 0.13603,-1.125513 -0.493,-1.125513 -0.85766,0 -1.03902,0.326545 -0.65215,1.175639 0.27678,0.607464 0.23185,0.771211 -0.39326,1.423686 -0.31314,0.326844 -0.52825,0.595194 -0.64079,0.813387 l -1.20768,-5.17e-4 c -0.0984,-0.227581 -0.27365,-0.478569 -0.47232,-0.658358 -0.45837,-0.414822 -0.52914,-0.70149 -0.40204,-1.628841 0.15282,-1.11488 0.14696,-1.124996 -0.66508,-1.124996 -0.84179,0 -0.88036,0.136919 -0.37724,1.351856 0.10999,0.265595 -0.0779,0.72829 -0.49919,1.228865 -0.28398,0.337497 -0.48324,0.610635 -0.59221,0.829924 l -1.22473,-5.17e-4 c -0.109,-0.219242 -0.30835,-0.492051 -0.59221,-0.829407 -0.42121,-0.500575 -0.60919,-0.96327 -0.4992,-1.228865 0.50542,-1.220487 0.46642,-1.351856 -0.39842,-1.351856 h -0.84078 l 0.1757,1.171505 c 0.15164,1.011208 0.0999,1.218855 -0.38034,1.51877 -0.23893,0.149218 -0.44408,0.441426 -0.52245,0.71882 l -1.17357,-5.17e-4 c -0.1167,-0.188017 -0.32038,-0.412734 -0.60771,-0.679028 -0.50894,-0.471668 -0.64267,-0.790846 -0.51212,-1.221115 0.36655,-1.208075 0.30297,-1.376143 -0.51883,-1.376143 -0.57463,0 -0.7655,0.109555 -0.69143,0.396875 0.3396,1.317351 0.30391,1.550235 -0.34365,2.248958 -0.23009,0.248272 -0.40407,0.455785 -0.51831,0.629419 l -1.12655,-5.16e-4 c -0.11425,-0.173485 -0.28855,-0.380985 -0.51831,-0.628903 -0.64683,-0.697948 -0.68435,-0.942084 -0.34365,-2.242757 0.0648,-0.24728 -0.12727,-0.425211 -0.52348,-0.485241 -0.801633,-0.12147 -1.326326,0.352652 -0.882116,0.79685 0.505326,0.505333 0.370866,1.226753 -0.344165,1.848466 -0.234403,0.203812 -0.44158,0.473523 -0.559139,0.710551 l -1.195793,-5.17e-4 c -0.07908,-0.276374 -0.282943,-0.566596 -0.520899,-0.715202 -0.480244,-0.299915 -0.532495,-0.507562 -0.380855,-1.51877 0.167994,-1.120211 0.146849,-1.171505 -0.486275,-1.171505 z" /><path
         id="path1"
         style="fill:#ffffff;fill-opacity:1;stroke:#000000;stroke-width:0.5;stroke-dasharray:none"
         d="m 60.581832,46.981628 c -0.62903,0 -0.653323,0.05635 -0.492993,1.125513 0.14814,0.987879 0.08597,1.197095 -0.507463,1.713074 -0.204896,0.178154 -0.355123,0.339338 -0.451135,0.483691 h -1.148767 c -0.09667,-0.168738 -0.243366,-0.322623 -0.40721,-0.410311 -0.67234,-0.359824 -0.961122,-1.469345 -0.520382,-2.000394 0.44221,-0.532834 -0.0027,-0.988526 -0.841292,-0.861446 -0.3962,0.06003 -0.588283,0.237961 -0.523483,0.485241 0.3407,1.300673 0.303182,1.544809 -0.343648,2.242757 -0.193484,0.208772 -0.347357,0.388839 -0.459403,0.544153 h -0.6134 v 4.934066 h 27.872717 v 49.767508 l 3.848344,-0.19637 v 0.0879 h 2.116667 c 1.705088,0 2.116667,-0.0772 2.116667,-0.39688 0,-0.46273 -0.243397,-0.49242 -1.164787,-0.14211 -0.550103,0.20915 -0.808576,0.1381 -1.444356,-0.39687 -0.504544,-0.42455 -0.894281,-0.63858 -1.165304,-0.64183 l 0.0026,-1.04386 h 5.17e-4 c 0.256861,0.0335 0.635311,-0.2165 1.172021,-0.7307 0.652475,-0.62511 0.816222,-0.67004 1.423686,-0.39326 0.849094,0.38687 1.175639,0.2055 1.175639,-0.65216 0,-0.633122 -0.05129,-0.654267 -1.171505,-0.48627 -1.011208,0.15164 -1.218855,0.0994 -1.51877,-0.380859 -0.191088,-0.30598 -0.616364,-0.556038 -0.945162,-0.556038 -0.04644,0 -0.08965,7.48e-4 -0.129191,0.0031 l 0.0026,-1.061434 c 0.0033,3.1e-5 0.007,0 0.01033,0 0.264799,0 0.739944,-0.297659 1.056266,-0.661459 0.621713,-0.71503 1.34365,-0.849495 1.848983,-0.344165 0.444198,0.44421 0.917804,-0.08049 0.796334,-0.882116 -0.06003,-0.39621 -0.237962,-0.588283 -0.485242,-0.523483 -1.300673,0.3407 -1.544292,0.303182 -2.24224,-0.343648 -0.441847,-0.409492 -0.756303,-0.642447 -0.976685,-0.674377 l 0.0021,-0.814938 c 0.220289,-0.03296 0.534005,-0.266032 0.974618,-0.674377 0.698723,-0.64756 0.93109,-0.682732 2.248441,-0.343132 0.28732,0.07407 0.396875,-0.1168 0.396875,-0.69143 0,-0.8218 -0.168068,-0.885382 -1.376143,-0.518832 -0.430269,0.13055 -0.749446,-0.0032 -1.221114,-0.512113 -0.448596,-0.484044 -0.779504,-0.730334 -1.014926,-0.723987 l 0.0021,-1.02526 h 5.16e-4 c 0.03326,0.0015 0.06858,0.0021 0.106454,0.0021 0.328798,0 0.754074,-0.250575 0.945162,-0.556555 0.299915,-0.48026 0.507562,-0.532496 1.51877,-0.380856 l 1.171505,0.1757 v -0.840775 c 0,-0.86484 -0.131369,-0.903329 -1.351856,-0.397909 -0.265595,0.10999 -0.72829,-0.07798 -1.228865,-0.499194 -0.529613,-0.445638 -0.900541,-0.683198 -1.154452,-0.689364 l 0.0026,-1.030945 c 0.253846,-0.0076 0.623878,-0.245091 1.151868,-0.689363 0.500575,-0.42125 0.96327,-0.608668 1.228865,-0.498678 1.214937,0.50312 1.351856,0.464552 1.351856,-0.377238 0,-0.81204 -0.01012,-0.817896 -1.124996,-0.665076 -0.927351,0.1271 -1.214019,0.05633 -1.628841,-0.402042 C 87.203205,82.13585 86.77199,81.89053 86.501805,81.878805 l 0.0026,-1.032495 c 0.255724,-0.0015 0.620358,-0.250785 1.123445,-0.732772 0.652475,-0.62511 0.816222,-0.670037 1.423686,-0.393257 0.849094,0.38687 1.175639,0.205503 1.175639,-0.652157 0,-0.62903 -0.05635,-0.65384 -1.125513,-0.49351 -0.987879,0.14814 -1.197095,0.08648 -1.713074,-0.506946 -0.362358,-0.41675 -0.654994,-0.607856 -0.876949,-0.574642 l 0.0021,-0.906404 c 0.285902,-7.2e-5 0.646684,-0.23679 0.801502,-0.526066 0.359824,-0.67234 1.469346,-0.961122 2.000395,-0.520382 0.532834,0.44221 0.988526,-0.0027 0.861446,-0.841292 -0.06003,-0.3962 -0.237962,-0.588283 -0.485242,-0.523483 -1.300673,0.3407 -1.544292,0.303182 -2.24224,-0.343648 -0.410348,-0.380299 -0.710872,-0.608417 -0.928109,-0.664559 l 0.0021,-0.835608 c 0.1983,-0.06409 0.46316,-0.288725 0.812353,-0.660425 0.616967,-0.65673 0.997368,-0.713119 2.36213,-0.349849 0.28806,0.07667 0.396875,-0.111703 0.396875,-0.687813 0,-0.8218 -0.168068,-0.885382 -1.376143,-0.518832 -0.430269,0.13055 -0.749446,-0.0032 -1.221114,-0.512113 -0.418553,-0.451627 -0.734661,-0.696318 -0.96635,-0.72192 l 0.0026,-1.028361 c 0.270981,-0.02799 0.677352,-0.26332 0.93431,-0.547253 0.414122,-0.45757 0.688033,-0.521856 1.628324,-0.380856 1.129581,0.16937 1.130681,0.168704 1.130681,-0.671276 0,-0.86484 -0.131369,-0.903329 -1.351856,-0.397909 -0.265595,0.10999 -0.72829,-0.07798 -1.228865,-0.499194 -0.496774,-0.418006 -0.853988,-0.653125 -1.105876,-0.685747 l 0.0026,-1.038179 c 0.251756,-0.03377 0.608065,-0.269042 1.103292,-0.685746 0.500575,-0.42125 0.96327,-0.609185 1.228865,-0.499195 1.216277,0.50368 1.351856,0.465381 1.351856,-0.381889 0,-0.88113 -0.403335,-1.051999 -1.321367,-0.560689 -0.383481,0.20523 -0.666358,0.117315 -1.277441,-0.396875 -0.480941,-0.404686 -0.829518,-0.634408 -1.07797,-0.67076 l 0.0026,-1.037663 c 0.267827,-0.02237 0.614274,-0.252887 1.000973,-0.697632 0.440985,-0.50723 0.748118,-0.641123 1.172538,-0.512113 1.04562,0.31784 1.34714,0.278378 1.44384,-0.189652 0.08485,-0.41062 -0.145778,-0.463021 -2.040186,-0.463021 h -1.57303 v -0.04651 l -0.750859,-6.487976 -2.063957,-0.516764 c -0.09512,-0.232887 -0.325205,-0.530172 -0.683679,-0.904338 -0.62511,-0.652475 -0.670038,-0.816222 -0.393258,-1.423686 0.38687,-0.849094 0.205504,-1.175639 -0.652156,-1.175639 -0.633124,0 -0.654269,0.05129 -0.486275,1.171505 0.15164,1.011208 0.09939,1.218855 -0.380856,1.51877 -0.214111,0.133715 -0.400597,0.382219 -0.49351,0.632003 h -1.268139 c -0.12152,-0.215048 -0.307019,-0.446709 -0.514181,-0.626835 -0.71503,-0.621713 -0.849495,-1.343133 -0.344165,-1.848466 0.44421,-0.444198 -0.08049,-0.91832 -0.882116,-0.79685 -0.39621,0.06003 -0.588283,0.237961 -0.523483,0.485241 0.3407,1.300673 0.303182,1.544809 -0.343648,2.242757 -0.193484,0.208772 -0.347357,0.388839 -0.459403,0.544153 h -1.244369 c -0.112046,-0.155314 -0.266438,-0.335381 -0.45992,-0.544153 -0.64756,-0.698723 -0.682732,-0.931607 -0.343132,-2.248958 0.07407,-0.28732 -0.1168,-0.396875 -0.69143,-0.396875 -0.8218,0 -0.885382,0.168068 -0.518832,1.376143 0.13055,0.430269 -0.0032,0.749447 -0.512113,1.221115 -0.244565,0.226653 -0.42855,0.42328 -0.549837,0.592728 H 70.73804 c -0.09291,-0.249784 -0.279916,-0.498288 -0.494027,-0.632003 -0.48026,-0.299915 -0.531978,-0.507562 -0.380338,-1.51877 l 0.175183,-1.171505 h -0.840776 c -0.86484,0 -0.903328,0.131369 -0.397908,1.351856 0.10999,0.265595 -0.07798,0.72829 -0.499194,1.228865 -0.247042,0.293594 -0.429993,0.538499 -0.545187,0.741557 h -1.318782 c -0.115194,-0.203058 -0.298662,-0.447963 -0.545703,-0.741557 -0.42125,-0.500575 -0.608668,-0.96327 -0.498678,-1.228865 0.50312,-1.214937 0.464552,-1.351856 -0.377238,-1.351856 -0.81204,0 -0.817896,0.01012 -0.665076,1.124996 0.1271,0.927351 0.05633,1.214019 -0.402042,1.628841 -0.172743,0.15633 -0.327737,0.3666 -0.429948,0.568441 h -1.301213 c -0.121157,-0.200749 -0.318503,-0.439959 -0.589628,-0.722953 -0.62511,-0.652475 -0.670038,-0.816222 -0.393258,-1.423686 0.38687,-0.849094 0.205504,-1.175639 -0.652156,-1.175639 z" /><path
         id="path26"
         style="fill:#ffffff;fill-opacity:1;stroke:#000000;stroke-width:0.5;stroke-dasharray:none;stroke-opacity:1"
         d="m 87.581217,45.63029 v 5.55625 5.55625 h 1.719792 1.719792 v -5.55625 -5.55625 h -1.719792 z m -2.345076,0.537435 c -0.273531,0.0057 -0.674588,0.312851 -1.262455,0.90072 -1.081861,1.08186 -1.036444,1.605279 0.336413,3.858679 0.801878,1.31619 0.889868,1.656882 0.889868,3.452502 0,1.19685 0.126567,2.119207 0.317294,2.309937 0.174624,0.17462 0.621109,0.31758 0.992187,0.31781 l 0.674894,5.17e-4 -0.07958,-3.819922 c -0.07717,-3.70592 -0.09696,-3.822821 -0.661459,-3.903121 -0.511255,-0.07274 -0.591738,-0.267386 -0.661458,-1.604036 -0.05372,-1.029972 -0.19402,-1.520467 -0.545704,-1.513086 z m 8.061007,0.0062 c -0.312527,-0.0058 -0.424264,0.403067 -0.424264,1.25522 0,1.34257 -0.327873,1.90531 -1.111043,1.90531 -0.43675,0 -0.476457,0.318479 -0.476457,3.836459 0,3.60554 0.03048,3.836458 0.507463,3.836458 1.21517,0 1.34447,-0.225586 1.34462,-2.343526 1.4e-4,-1.89593 0.06636,-2.129501 1.058334,-3.741891 1.2959,-2.10644 1.346428,-2.958445 0.236678,-3.995105 -0.527577,-0.49283 -0.892255,-0.748383 -1.135331,-0.752925 z" /><path
         id="path27"
         style="fill:#ffffff;fill-opacity:1;stroke:#000000;stroke-width:0.5;stroke-dasharray:none;stroke-opacity:1"
         d="m 88.940745,70.7489 -3.02152,-0.07545 -0.0692,-9.391158 c -0.0383,-5.16523 -0.0127,-9.540778 0.0574,-9.723438 h 5.2e-4 c 0.0701,-0.18266 0.30577,-0.332279 0.524,-0.332279 0.32591,0 0.41009,0.555274 0.47129,3.108854 l 0.0744,3.108854 1.57665,0.08113 c 0.86706,0.04454 1.86554,0.0081 2.21898,-0.08061 l 0.64286,-0.16123 -0.13384,-3.028239 c -0.10536,-2.38733 -0.0601,-3.028756 0.2129,-3.028756 0.19049,0 0.43076,0.137281 0.53434,0.304891 0.26768,0.4331 0.40988,18.542228 0.14883,18.952848 -0.1601,0.25178 -0.99841,0.320383 -3.23753,0.264583 z" /></g></g></svg>
